<svg xmlns="http://www.w3.org/2000/svg" fill="#FFFFFF" width="16" height="16" viewBox="0 0 16 16"><path d="M 9.1542969 0.001953125 C 7.7775914 0.001953125 6.2164838 0.24483437 4.9433594 0.99023438 C 3.670235 1.7355344 2.7109375 3.0526719 2.7109375 4.9511719 C 2.7109375 5.9648719 2.6248315 6.2682625 2.453125 6.6015625 C 2.2814181 6.9348625 1.9452765 7.3634781 1.5410156 8.3300781 A 0.50005006 0.50005006 0 0 0 2.0019531 9.0214844 L 3.0195312 9.0214844 C 3.0188181 9.1451844 3.0199531 9.1967625 3.0175781 9.4140625 A 0.50005006 0.50005006 0 0 0 3.0175781 9.4238281 L 3.0175781 11.046875 C 3.0175781 11.516075 2.9535861 11.985941 3.2792969 12.431641 C 3.4421524 12.654441 3.6977056 12.810831 3.9824219 12.894531 C 4.2671382 12.978531 4.5931965 13.007812 5.0058594 13.007812 C 5.2922988 13.008012 5.754941 13.007812 6.1542969 13.007812 L 6.1542969 15.501953 A 0.50005006 0.50005006 0 0 0 6.6542969 16.001953 L 12.193359 16.001953 A 0.50005006 0.50005006 0 0 0 12.693359 15.501953 L 12.693359 12.003906 C 12.693359 10.347006 13.123314 9.5701156 13.607422 8.7285156 C 14.069949 7.9244156 14.576334 7.0059344 14.623047 5.5527344 A 0.50005006 0.50005006 0 0 0 14.654297 5.3789062 C 14.654294 2.1770062 12.031033 0.00390625 9.1542969 0.00390625 L 9.1542969 0.001953125 z M 9.1542969 0.99804688 L 9.1542969 1.0019531 C 11.538693 1.0019531 13.654294 2.7136531 13.654297 5.3769531 C 13.654297 6.7318531 13.236312 7.3661156 12.740234 8.2285156 C 12.244157 9.0910156 11.693359 10.158353 11.693359 12.001953 L 11.693359 15 L 7.1542969 15 L 7.1542969 12.505859 A 0.50005006 0.50005006 0 0 0 6.6542969 12.005859 L 5.0058594 12.005859 C 4.6477523 12.005859 4.4026793 11.974594 4.2636719 11.933594 C 4.1246644 11.892594 4.1046151 11.862844 4.0878906 11.839844 C 4.0544416 11.793844 4.0175781 11.532322 4.0175781 11.044922 L 4.0175781 9.4277344 L 4.0175781 9.4160156 C 4.0220181 9.0105156 4.0239344 8.7875906 4.0214844 8.6503906 C 4.0202544 8.5813906 4.0215831 8.5402844 4.0078125 8.4589844 C 4.0009225 8.4179844 4.0006626 8.3620062 3.9316406 8.2539062 C 3.8626196 8.1455062 3.6347846 8.0175781 3.5019531 8.0175781 L 2.8300781 8.0175781 C 3.0032758 7.7093781 3.20237 7.3253875 3.3417969 7.0546875 C 3.5815449 6.5892875 3.7109375 6.0303656 3.7109375 4.9472656 C 3.7109375 3.3660656 4.408473 2.4590094 5.4492188 1.8496094 C 6.4899644 1.2403094 7.9004423 0.99804688 9.1542969 0.99804688 z M 9.0019531 2 L 9.0019531 2.0019531 C 8.109556 1.9919531 7.0012841 2.114375 6.0917969 2.546875 C 5.6370533 2.763075 5.2216629 3.0661594 4.953125 3.5058594 C 4.6845871 3.9454594 4.5944211 4.5120344 4.734375 5.1152344 C 4.8785789 5.7367344 5.3226149 6.17185 5.8007812 6.28125 C 6.2789478 6.39055 6.7270427 6.2935156 7.1601562 6.2285156 C 7.5932698 6.1635156 8.0068244 6.1158813 8.3457031 6.1757812 C 8.6845819 6.2357812 8.9549801 6.3682437 9.2363281 6.7773438 C 9.5365053 7.2138438 9.8858436 7.5196281 10.28125 7.6738281 C 10.676656 7.8280281 11.115628 7.8061594 11.474609 7.6308594 C 12.192572 7.2802594 12.604967 6.4546656 12.677734 5.4472656 C 12.753234 4.4020656 12.291331 3.5041625 11.587891 2.9140625 C 10.88445 2.3240625 9.9520393 2.0073 9.0019531 2 z M 8.9941406 3.0019531 C 9.7231839 3.0119531 10.445846 3.2626406 10.945312 3.6816406 C 11.444781 4.1005406 11.732099 4.6513531 11.679688 5.3769531 C 11.624538 6.1403531 11.290848 6.609475 11.035156 6.734375 C 10.90731 6.796375 10.800624 6.8051406 10.644531 6.7441406 C 10.488438 6.6831406 10.2787 6.5281375 10.060547 6.2109375 C 9.6431366 5.6039375 9.0712502 5.2910594 8.5214844 5.1933594 C 7.9717186 5.0953594 7.4527554 5.1761875 7.0117188 5.2421875 C 6.5706821 5.3081875 6.2005462 5.3476406 6.0234375 5.3066406 C 5.8463288 5.2666406 5.7967999 5.2676719 5.7089844 4.8886719 C 5.6169184 4.4918719 5.6731306 4.2459437 5.8066406 4.0273438 C 5.9401511 3.8087438 6.1842263 3.6076656 6.5214844 3.4472656 C 7.1960005 3.1265656 8.2074078 2.9959531 8.9941406 3.0019531 z "/></svg>