<?xml version="1.0" encoding="UTF-8"?><svg id="Calque_1" xmlns="http://www.w3.org/2000/svg" viewBox="0 0 78.56 88.92"><defs><style>.cls-1{fill:#fff;}.cls-2{fill:#f1bf22;}.cls-3{fill:#ebebeb;}.cls-4{fill:#e6a329;}</style></defs><path class="cls-4" d="M78.56,0H0L7.36,79.87l31.91,9.05,31.91-9.05L78.56,0Z"/><path class="cls-2" d="M39.28,6.51V82.15l25.86-7.33L71.42,6.51H39.28Z"/><path class="cls-1" d="M59.85,16.31H20.09l-2.77,29.9,.06-.19H51.15l-1.1,12.65-10.78,3.1-10.93-3.15-.65-7.66h-9.93l1.42,15.3,20.1,5.71,20.11-5.71,2.77-30.03H26.31l.46-10.01h24.87l.37,5.73h10.01l-2.18-15.65Z"/><path class="cls-3" d="M39.29,16.31H20.09l-2.77,29.9,.06-.19h21.9v-9.75h-11.58l.46-10.01h11.12v-9.95Zm-11.58,34.66h-9.95l1.42,15.29,20.1,5.7v-10.18l-10.93-3.16-.63-7.66Z"/></svg>