<svg id="SvgjsSvg1171" width="288" height="288" xmlns="http://www.w3.org/2000/svg" version="1.1" xmlns:xlink="http://www.w3.org/1999/xlink" xmlns:svgjs="http://svgjs.com/svgjs"><defs id="SvgjsDefs1172"></defs><g id="SvgjsG1173"><svg xmlns="http://www.w3.org/2000/svg" enable-background="new 0 0 100 100" viewBox="0 0 100 100" width="288" height="288"><path d="M88,10H12c-3.31,0-6,2.69-6,6v52v6c0,3.31,2.69,6,6,6h30.05l-0.67,1.69C40.32,84.31,37.82,86,35,86h-4c-1.1,0-2,0.9-2,2		s0.9,2,2,2h4h30h4c1.1,0,2-0.9,2-2s-0.9-2-2-2h-4c-2.82,0-5.32-1.69-6.37-4.31L57.95,80H88c3.31,0,6-2.69,6-6v-6V16
		C94,12.69,91.31,10,88,10z M10,16c0-1.1,0.9-2,2-2h76c1.1,0,2,0.9,2,2v50H10V16z M54.91,83.17c0.42,1.04,0.98,1.99,1.66,2.83H43.43
		c0.68-0.84,1.24-1.79,1.66-2.83L46.35,80h7.29L54.91,83.17z M90,74c0,1.1-0.9,2-2,2H55H45H12c-1.1,0-2-0.9-2-2v-4h80V74z" fill="#4d4d4d" class="color000 svgShape"></path><path d="M76,20H54c-1.54,0-2.94,0.59-4,1.54C48.94,20.59,47.54,20,46,20H24c-1.1,0-2,0.9-2,2v30c0,1.1,0.9,2,2,2h22
		c1.1,0,2,0.9,2,2s0.9,2,2,2s2-0.9,2-2s0.9-2,2-2h7v4c0,1.1,0.9,2,2,2s2-0.9,2-2v-4h11c1.1,0,2-0.9,2-2V22C78,20.9,77.1,20,76,20z
		 M48,50.34C47.37,50.12,46.7,50,46,50H26V24h20c1.1,0,2,0.9,2,2V50.34z M74,50H54c-0.7,0-1.37,0.12-2,0.34V26c0-1.1,0.9-2,2-2h20
		V50z" fill="#4d4d4d" class="color000 svgShape"></path></svg></g></svg>