<?xml version="1.0" encoding="utf-8"?>
<!-- Generator: Adobe Illustrator 25.4.1, SVG Export Plug-In . SVG Version: 6.00 Build 0)  -->
<svg version="1.1" id="Calque_1" xmlns="http://www.w3.org/2000/svg" xmlns:xlink="http://www.w3.org/1999/xlink" x="0px" y="0px"
	 viewBox="0 0 1080 1080" style="enable-background:new 0 0 1080 1080;" xml:space="preserve">
<g>
	<path d="M370.36,843.18c-9.26,6.6-16.99,12.69-25.26,17.91c-32.17,20.29-67.37,14.06-91.62-15.19
		c-24.12-29.1-35.41-63.75-42.9-99.66c-20.46-98.14-14.83-195.11,18.03-289.83c6.41-18.48,6.94-35.2,4.92-54.26
		c-8.82-83.21,56.22-154.45,140.62-156.47c29.6-0.71,58.43,3.99,86.7,11.88c8.95,2.5,12.88-0.01,18.26-6.71
		c59.94-74.63,138.09-113.5,233.75-110.83c95.35,2.66,157.62,63.61,166.57,158.5c5.63,59.71-9.26,115.73-35.08,168.94
		c-36,74.2-88.61,134.59-157.51,179.73c-37.63,24.65-79.53,40.44-124.54,46.41c-6.05,0.8-8.89,2.83-10.45,8.99
		c-12.02,47.56-26.96,94.22-46.04,139.44c-10.16,24.07-21.24,47.89-38.82,67.6c-7.81,8.75-16.9,16.91-26.79,23.14
		c-19.75,12.43-40.08,7.09-52.4-12.95c-10.74-17.47-13.82-37.33-15.92-57.32C371.24,856.47,370.92,850.41,370.36,843.18z
		 M458.4,282.23c-30.17-7.8-59.12-13.82-89-11.36c-37.52,3.1-68.64,18.81-90.55,50c-14.64,20.84-21.08,44.55-21.27,72.72
		c3.23-4.24,4.85-6.43,6.53-8.56c12.83-16.25,26.56-31.56,45.34-41.24c30.69-15.83,60.2-4.38,71.04,28.4
		c9.94,30.05,6.21,59.26-10.33,86.13c-24.44,39.71-68.16,45.62-102.9,14.56c-4.62-4.13-9.06-8.45-13.79-12.88
		c-0.51,1.23-1.13,2.51-1.59,3.85c-29.77,88.21-36.04,178.15-18.49,269.5c6.64,34.55,16.17,68.31,39.32,96.42
		c15.66,19.01,35.07,24.22,56.25,11.71c13.56-8.01,25.37-19.06,37.53-29.27c2.45-2.06,3.88-6.43,4.12-9.85
		c5.14-72.4,19.56-143,41.14-212.18c10.97-35.17,22.44-70.26,41.22-102.22c5.03-8.56,11.85-16.63,19.49-22.95
		c9.53-7.88,21.68-5.23,28.81,4.97c2.9,4.15,4.92,9.24,6.14,14.19c5.7,22.98,3.7,46.03,0.23,69.12
		c-5.68,37.72-19.47,72.69-36.08,106.66c-1.54,3.16-6.5,4.65-9.88,6.91c-1.23-3.86-3.78-7.86-3.41-11.56
		c0.66-6.56,3.07-12.94,4.78-19.39c9.37-35.28,20.87-70.16,22.57-107c0.58-12.71-0.64-25.5-1.1-40.22
		c-29.77,27.61-82.52,205.39-85,281.68c17.53-21.12,25.21-46.79,37.56-70.45c7,9.52,7.84,19.72,5.24,30.31
		c-4.99,20.28-13.15,39.74-26.85,55.1c-19.15,21.49-23.14,45.47-19.05,72.32c0.04,0.29-0.01,0.59,0.06,0.87
		c3.48,14.89,5.83,30.18,10.8,44.55c4.21,12.14,12.64,14.22,22.37,5.98c9.17-7.77,17.84-16.74,24.58-26.65
		c17.59-25.84,28.92-54.85,38.64-84.38c11.03-33.53,21.27-67.33,31.87-101.08c-28.73-7.85-28.73-7.85-29.87-13.01
		c7.74-0.66,15.48-1.8,23.23-1.85c7.9-0.04,10.55-3.86,12.35-11.12c17.82-71.83,32.53-144.25,43.17-217.5
		c6-41.31,12.5-82.56,18.77-123.83c0.7-4.58,2-8.56-4.95-10.49c-31.56-8.75-63-17.97-94.34-27.45c-6.1-1.84-8.9-0.91-12.16,4.85
		c-17.93,31.64-22.96,65.89-22.35,101.56c0.16,9.59-1.11,19.28,8.06,26c0.61,0.44,0.36,2.05,0.5,3.05
		c-15.75,4.79-26.06-0.58-28.76-15.86c-7.2-40.76-3.57-80.32,14.81-117.95C454.83,290.02,456.34,286.65,458.4,282.23z
		 M559.91,672.76c4.1-1.15,6.83-1.76,9.45-2.67c52-18.16,99.51-44.43,141.17-80.48c67.62-58.51,115.14-129.76,134.17-218.18
		c3.48-16.18,4.48-32.9,6.77-50.46c-79.24,16.61-156.46,15.9-235.1,5.03C608.94,443.49,589.79,558.4,559.91,672.76z M850.43,314.31
		c-0.65-7.86-0.93-14.46-1.78-20.98c-5.73-44.27-24.04-81.35-64.06-103.97c-51.6-29.18-105.48-26.46-159.71-7.78
		c-1.88,0.65-3.59,4.75-3.65,7.29c-0.86,34.74-1.22,69.5-2.22,104.24c-0.18,6.18,1.06,8.53,7.46,9.52
		c60.21,9.32,120.5,17.46,181.66,14.85C821.94,316.89,835.7,315.44,850.43,314.31z M362.88,403.69
		c-3.31-10.61-5.44-21.79-10.25-31.66c-4.99-10.25-14.74-13.31-25.16-8.69c-8.33,3.7-16.28,8.87-23.33,14.68
		c-15.7,12.96-26.29,29.99-35.05,48.13c-1.12,2.32-1.14,6.68,0.32,8.49c7.01,8.72,13.67,18.24,22.38,24.97
		c16.3,12.6,35.86,10,50.1-5.09C355.12,440.51,359.81,423.1,362.88,403.69z M597.24,297.14c4.42-37.58,8.62-73.3,13.04-110.82
		c-44.57,18.72-81.62,43.68-110.59,81.79C532.5,277.87,563.84,287.2,597.24,297.14z"/>
</g>
</svg>
