<svg xmlns="http://www.w3.org/2000/svg" xmlns:xlink="http://www.w3.org/1999/xlink" width="165.563" height="165.563" viewBox="0 0 165.563 165.563">
  <defs>
    <style>
      .cls-1, .cls-3 {
        fill: #fff;
      }

      .cls-1 {
        opacity: 0.8;
      }

      .cls-2 {
        fill: url(#linear-gradient);
      }

      .cls-4 {
        fill: url(#linear-gradient-2);
      }

      .cls-5 {
        fill: #ff9898;
      }
    </style>
    <linearGradient id="linear-gradient" x1="0.5" x2="0.5" y2="1" gradientUnits="objectBoundingBox">
      <stop offset="0" stop-color="#fff"/>
      <stop offset="1" stop-color="#804c4c"/>
    </linearGradient>
    <linearGradient id="linear-gradient-2" x1="0.5" x2="0.5" y2="1" gradientUnits="objectBoundingBox">
      <stop offset="0" stop-color="#ff9898"/>
      <stop offset="1" stop-color="#804c4c"/>
    </linearGradient>
  </defs>
  <g id="Logo" transform="translate(-852.195 17.22)">
    <rect id="Rectangle_16" data-name="Rectangle 16" class="cls-1" width="121.201" height="121.201" rx="60.6" transform="translate(957.158 -17.22) rotate(60)"/>
    <g id="logotest2" transform="translate(894.398 17.99)">
      <path id="Tracé_29" data-name="Tracé 29" class="cls-2" d="M219.052,223.581c-1.1.785-2.022,1.51-3.006,2.131a7.939,7.939,0,0,1-10.9-1.808c-2.87-3.463-4.214-7.586-5.105-11.859a63.8,63.8,0,0,1,2.146-34.489,14.125,14.125,0,0,0,.585-6.457A16.96,16.96,0,0,1,219.5,152.48a35.107,35.107,0,0,1,10.317,1.414,1.742,1.742,0,0,0,2.173-.8c7.133-8.881,16.432-13.506,27.816-13.189,11.346.317,18.756,7.569,19.822,18.861.67,7.105-1.1,13.772-4.174,20.1a52.588,52.588,0,0,1-18.743,21.388,35.339,35.339,0,0,1-14.82,5.523,1.234,1.234,0,0,0-1.244,1.07,115.166,115.166,0,0,1-5.479,16.593,28.2,28.2,0,0,1-4.62,8.044,15.288,15.288,0,0,1-3.188,2.754,4.213,4.213,0,0,1-6.236-1.541,15.8,15.8,0,0,1-1.894-6.821C219.156,225.163,219.118,224.442,219.052,223.581Zm10.477-66.752a31.709,31.709,0,0,0-10.591-1.352,13.924,13.924,0,0,0-10.775,5.95,14.641,14.641,0,0,0-2.531,8.654c.384-.5.577-.765.777-1.019a17.008,17.008,0,0,1,5.4-4.907c3.652-1.884,7.164-.521,8.454,3.38a11.787,11.787,0,0,1-1.229,10.249c-2.908,4.725-8.111,5.429-12.245,1.733-.55-.491-1.078-1.006-1.641-1.533-.061.146-.135.3-.189.458a62.093,62.093,0,0,0-2.2,32.07c.79,4.111,1.924,8.129,4.679,11.474,1.864,2.262,4.173,2.882,6.694,1.393a34.674,34.674,0,0,0,4.466-3.483,1.82,1.82,0,0,0,.49-1.172,110.978,110.978,0,0,1,4.9-25.249,57.257,57.257,0,0,1,4.905-12.164,10.532,10.532,0,0,1,2.319-2.731,2.267,2.267,0,0,1,3.428.591,5.14,5.14,0,0,1,.731,1.689,20.871,20.871,0,0,1,.027,8.225,43.777,43.777,0,0,1-4.293,12.692c-.183.376-.773.553-1.176.822a3.9,3.9,0,0,1-.406-1.376,15.155,15.155,0,0,1,.569-2.307c1.115-4.2,2.484-8.349,2.686-12.733.069-1.512-.076-3.034-.131-4.786-3.543,3.286-9.82,24.441-10.115,33.519,2.086-2.513,3-5.568,4.47-8.383a4.107,4.107,0,0,1,.624,3.607,15.146,15.146,0,0,1-3.2,6.557,9.838,9.838,0,0,0-2.267,8.606.986.986,0,0,0,.007.1,53.108,53.108,0,0,0,1.285,5.3c.5,1.445,1.5,1.692,2.662.712a16.177,16.177,0,0,0,2.925-3.171,39.5,39.5,0,0,0,4.6-10.041c1.313-3.99,2.531-8.012,3.792-12.028-3.419-.934-3.419-.934-3.554-1.548.921-.079,1.842-.214,2.764-.22.94,0,1.255-.459,1.47-1.323,2.121-8.548,3.871-17.166,5.137-25.882.714-4.916,1.487-9.824,2.234-14.736.083-.545.238-1.019-.589-1.248-3.756-1.041-7.5-2.138-11.226-3.266a1.019,1.019,0,0,0-1.447.577,23.032,23.032,0,0,0-2.66,12.085c.019,1.141-.132,2.294.959,3.094.073.052.043.244.06.363-1.874.57-3.1-.069-3.422-1.887a22.326,22.326,0,0,1,1.762-14.036C229.1,157.756,229.283,157.355,229.528,156.829Zm12.08,46.472c.488-.137.813-.209,1.125-.318a51.152,51.152,0,0,0,16.8-9.577c8.047-6.963,13.7-15.441,15.966-25.963.414-1.925.533-3.915.806-6a80.486,80.486,0,0,1-27.976.6A216.557,216.557,0,0,1,241.608,203.3Zm34.571-42.655c-.077-.935-.111-1.721-.212-2.5-.682-5.268-2.861-9.681-7.623-12.372-6.14-3.472-12.552-3.149-19.005-.926-.224.077-.427.565-.434.868-.1,4.134-.145,8.27-.264,12.4-.021.735.126,1.015.888,1.133,7.165,1.109,14.339,2.078,21.617,1.767C272.789,160.954,274.426,160.781,276.179,160.647Zm-58.018,10.636a26.581,26.581,0,0,0-1.22-3.767,2.129,2.129,0,0,0-2.994-1.034,12.268,12.268,0,0,0-2.776,1.747A16.432,16.432,0,0,0,207,173.955a1.159,1.159,0,0,0,.038,1.01,17.248,17.248,0,0,0,2.663,2.971,4.243,4.243,0,0,0,5.962-.606A10.728,10.728,0,0,0,218.161,171.283ZM246.05,158.6c.526-4.472,1.026-8.723,1.552-13.187a30.734,30.734,0,0,0-13.16,9.733Z" transform="translate(-198.614 -139.891)"/>
      <path id="Tracé_29_-_Contour" data-name="Tracé 29 - Contour" class="cls-3" d="M224.838,235.535a4.86,4.86,0,0,1-4.137-2.572,16.443,16.443,0,0,1-1.966-7.031c-.049-.462-.083-.929-.117-1.42l-.3.22c-.683.5-1.328.975-2.006,1.4a9.011,9.011,0,0,1-4.843,1.487,8.729,8.729,0,0,1-6.711-3.4c-3.187-3.845-4.458-8.473-5.21-12.076a66.163,66.163,0,0,1-1.316-17.53,64.619,64.619,0,0,1,3.479-17.225,13.469,13.469,0,0,0,.561-6.24,17.06,17.06,0,0,1,4.171-13.139,17.568,17.568,0,0,1,5.737-4.316,18.026,18.026,0,0,1,7.311-1.717c.236-.006.476-.009.714-.009a35.987,35.987,0,0,1,9.75,1.44,2.181,2.181,0,0,0,.576.094c.376,0,.627-.169,1.073-.724,7.137-8.886,16.258-13.391,27.112-13.391.366,0,.738.005,1.108.016a20.755,20.755,0,0,1,14.1,5.454c3.524,3.38,5.67,8.172,6.207,13.86.62,6.574-.761,13.236-4.222,20.369a53.183,53.183,0,0,1-18.919,21.588,35.813,35.813,0,0,1-15.028,5.6c-.551.073-.7.2-.825.7a114.845,114.845,0,0,1-5.5,16.665,28.583,28.583,0,0,1-4.707,8.183,15.651,15.651,0,0,1-3.295,2.844A5.216,5.216,0,0,1,224.838,235.535Zm-5.356-12.874.068.882c.022.284.041.553.059.812.036.514.07,1,.12,1.473a15.358,15.358,0,0,0,1.823,6.612,3.9,3.9,0,0,0,3.285,2.1,4.236,4.236,0,0,0,2.258-.716,14.655,14.655,0,0,0,3.081-2.663,27.736,27.736,0,0,0,4.532-7.906,113.86,113.86,0,0,0,5.455-16.521,1.724,1.724,0,0,1,1.663-1.443,34.821,34.821,0,0,0,14.612-5.445,52.2,52.2,0,0,0,18.568-21.188c3.379-6.963,4.729-13.452,4.126-19.838-1.058-11.218-8.287-18.1-19.338-18.408-.36-.01-.723-.015-1.08-.015-10.536,0-19.4,4.38-26.332,13.017a2.285,2.285,0,0,1-1.852,1.1,3.147,3.147,0,0,1-.845-.131,35.006,35.006,0,0,0-9.481-1.4c-.229,0-.462,0-.69.008a16.95,16.95,0,0,0-12.32,5.694,16,16,0,0,0-3.928,12.374,14.578,14.578,0,0,1-.61,6.673,63.487,63.487,0,0,0-2.128,34.223c.728,3.49,1.954,7.967,5,11.642a7.749,7.749,0,0,0,5.941,3.036,8.028,8.028,0,0,0,4.31-1.333c.648-.409,1.279-.873,1.948-1.363.331-.243.672-.494,1.035-.752Zm5.329,9.848c-.474,0-1.344-.213-1.838-1.637a30.654,30.654,0,0,1-.952-3.752c-.11-.526-.224-1.07-.347-1.6a.712.712,0,0,1-.019-.167c-.556-3.68.2-6.537,2.391-8.991a14.469,14.469,0,0,0,3.083-6.344,3.782,3.782,0,0,0-.107-2.433c-.3.628-.589,1.268-.868,1.892a24.024,24.024,0,0,1-3.248,5.756l-.932,1.123.047-1.458c.139-4.278,1.618-11.581,3.86-19.059.863-2.88,3.877-12.458,6.414-14.81l.805-.747.034,1.1c.018.561.045,1.1.071,1.623.055,1.108.108,2.154.06,3.2a48.259,48.259,0,0,1-2.092,10.6c-.2.732-.412,1.49-.61,2.235-.06.226-.127.452-.192.67a8.6,8.6,0,0,0-.363,1.559,1.512,1.512,0,0,0,.165.61,1.345,1.345,0,0,0,.47-.326,42.551,42.551,0,0,0,4.248-12.548,20.535,20.535,0,0,0-.018-8.03,4.609,4.609,0,0,0-.655-1.523,1.97,1.97,0,0,0-1.579-.924,1.758,1.758,0,0,0-1.12.432,10.088,10.088,0,0,0-2.207,2.6,56.3,56.3,0,0,0-4.859,12.06,111.14,111.14,0,0,0-4.874,25.136,2.3,2.3,0,0,1-.667,1.519c-.289.242-.581.494-.864.736a26.39,26.39,0,0,1-3.669,2.794,5.778,5.778,0,0,1-2.939.88,5.681,5.681,0,0,1-4.395-2.386c-2.907-3.53-4.017-7.708-4.784-11.7a62.593,62.593,0,0,1,2.218-32.324c.045-.13.1-.25.144-.357.02-.045.039-.09.057-.133l.277-.667.527.493c.177.166.351.331.523.494.379.359.737.7,1.109,1.031a7.987,7.987,0,0,0,5.3,2.23,7.279,7.279,0,0,0,6.189-3.852,11.26,11.26,0,0,0,1.18-9.83c-.814-2.462-2.559-3.875-4.787-3.875a6.469,6.469,0,0,0-2.963.782,16.32,16.32,0,0,0-5.232,4.773c-.125.159-.251.325-.424.554l-.348.458-.908,1.192.01-1.5a15.2,15.2,0,0,1,2.622-8.938,14.412,14.412,0,0,1,11.143-6.161c.549-.045,1.114-.068,1.682-.068a35.809,35.809,0,0,1,9.075,1.434l.582.15-.254.545c-.077.165-.147.317-.213.461-.147.319-.274.594-.41.87a21.667,21.667,0,0,0-1.719,13.729c.2,1.128.76,1.676,1.713,1.676a3,3,0,0,0,.442-.035,3.682,3.682,0,0,1-.742-2.712c0-.133,0-.27,0-.4-.085-4.988.78-8.91,2.725-12.34a1.5,1.5,0,0,1,1.324-.932,2.433,2.433,0,0,1,.7.123c4.1,1.241,7.772,2.309,11.215,3.263a1.264,1.264,0,0,1,.97,1.68c-.007.041-.014.083-.02.125-.234,1.541-.475,3.107-.708,4.622-.509,3.313-1.036,6.739-1.525,10.11-1.223,8.418-2.906,16.9-5.147,25.931a1.853,1.853,0,0,1-1.952,1.7c-.5,0-1,.046-1.514.1.54.171,1.368.4,2.434.688l.5.137-.156.5c-.379,1.206-.76,2.434-1.129,3.62-.858,2.763-1.746,5.62-2.666,8.414a40.253,40.253,0,0,1-4.66,10.166,16.591,16.591,0,0,1-3.015,3.271A2.558,2.558,0,0,1,224.81,232.509Zm-2.156-7.182c.123.529.236,1.067.345,1.588a29.9,29.9,0,0,0,.918,3.629c.152.44.431.964.893.964a1.648,1.648,0,0,0,.973-.471,15.6,15.6,0,0,0,2.835-3.071,39.343,39.343,0,0,0,4.537-9.916c.917-2.787,1.8-5.64,2.66-8.4.319-1.026.647-2.081.975-3.128a23.78,23.78,0,0,1-2.576-.781,1.206,1.206,0,0,1-.835-1l-.123-.558.569-.049c.277-.024.561-.053.835-.082.641-.067,1.3-.136,1.968-.14.607,0,.8-.188.988-.944,2.232-9,3.91-17.449,5.128-25.834.49-3.376,1.017-6.8,1.527-10.118.233-1.514.473-3.08.707-4.62.007-.047.015-.093.022-.138a1.3,1.3,0,0,0,.032-.415c-.007-.019-.07-.08-.283-.139-3.451-.957-7.127-2.026-11.237-3.27a1.53,1.53,0,0,0-.413-.08c-.1,0-.214,0-.454.425-1.852,3.269-2.677,7.028-2.595,11.831,0,.142,0,.284,0,.422,0,1.069.034,1.751.753,2.278a.734.734,0,0,1,.257.632c0,.022,0,.055,0,.067l.059.423-.409.122a4.727,4.727,0,0,1-1.363.224,2.648,2.648,0,0,1-2.7-2.5,25.2,25.2,0,0,1-.265-7.3,21.771,21.771,0,0,1,2.07-7.04c.119-.243.233-.489.362-.767a33.328,33.328,0,0,0-8.244-1.254c-.54,0-1.079.022-1.6.065A13.4,13.4,0,0,0,206.2,168.52a17.131,17.131,0,0,1,5.374-4.81,7.455,7.455,0,0,1,3.421-.894c2.647,0,4.792,1.7,5.736,4.561a12.534,12.534,0,0,1,.589,5.484,12.828,12.828,0,0,1-1.867,5.184,9.538,9.538,0,0,1-3.147,3.224,7.414,7.414,0,0,1-3.893,1.1,8.966,8.966,0,0,1-5.964-2.485c-.376-.336-.733-.674-1.109-1.031a61.827,61.827,0,0,0-2.1,31.559c.742,3.859,1.809,7.893,4.574,11.25a4.738,4.738,0,0,0,3.623,2.021,4.8,4.8,0,0,0,2.431-.741,25.646,25.646,0,0,0,3.526-2.692c.285-.245.58-.5.872-.743a1.378,1.378,0,0,0,.313-.824,105.609,105.609,0,0,1,1.722-12.83,119.941,119.941,0,0,1,3.195-12.533,57.112,57.112,0,0,1,4.951-12.268,10.956,10.956,0,0,1,2.432-2.863,2.745,2.745,0,0,1,1.758-.661,2.952,2.952,0,0,1,2.4,1.351,5.68,5.68,0,0,1,.806,1.855,21.421,21.421,0,0,1,.036,8.419A43.489,43.489,0,0,1,231.543,202a2.016,2.016,0,0,1-.976.81,4.1,4.1,0,0,0-.371.209l-.553.369-.2-.633c-.039-.122-.094-.252-.152-.39a2.464,2.464,0,0,1-.275-1.187,9.475,9.475,0,0,1,.4-1.744c.063-.211.128-.43.184-.642.2-.75.41-1.51.613-2.245a47.507,47.507,0,0,0,2.056-10.383c.046-1-.006-2.023-.06-3.106q-.008-.162-.016-.326c-1.508,2.246-3.476,7.144-5.352,13.4a96.961,96.961,0,0,0-3.707,17.1,31.166,31.166,0,0,0,2.108-4.156c.408-.914.83-1.858,1.306-2.77l.371-.711.475.646a4.576,4.576,0,0,1,.706,4.022,15.433,15.433,0,0,1-3.308,6.77,9.349,9.349,0,0,0-2.146,8.2v.007A.755.755,0,0,1,222.655,225.327ZM240.9,204.018l.22-.843a214.691,214.691,0,0,0,6.7-41.169l.034-.537.533.074a92.653,92.653,0,0,0,12.786.93,72.808,72.808,0,0,0,13.3-1.183c-1.135.1-2.212.187-3.31.234-.921.039-1.872.059-2.827.059h0a123.528,123.528,0,0,1-18.887-1.832c-1.123-.174-1.336-.782-1.311-1.642.067-2.317.11-4.675.152-6.956.033-1.785.067-3.631.112-5.447.009-.373.244-1.146.771-1.328a28.3,28.3,0,0,1,9.275-1.706,20.359,20.359,0,0,1,10.14,2.669,14.634,14.634,0,0,1,5.527,5.4,19.434,19.434,0,0,1,2.345,7.34c.07.536.108,1.077.149,1.65.02.278.04.566.065.869l.02.24.192-.04-.091.7c-.087.665-.159,1.328-.228,1.97a39.432,39.432,0,0,1-.584,4.075,44.922,44.922,0,0,1-5.88,14.477,52.788,52.788,0,0,1-10.248,11.759,51.875,51.875,0,0,1-16.961,9.671c-.222.077-.445.136-.7.205-.135.036-.283.075-.45.122Zm7.887-41.413c-.444,6.735-1.227,13.557-2.328,20.285-1.064,6.5-2.461,13.123-4.154,19.7.092-.026.177-.053.26-.082a50.879,50.879,0,0,0,16.636-9.483c8.5-7.352,13.666-15.755,15.8-25.69a38.7,38.7,0,0,0,.568-3.973c.046-.424.093-.858.145-1.3a73.5,73.5,0,0,1-14.54,1.4A92.955,92.955,0,0,1,248.791,162.605Zm.763-17.3a.952.952,0,0,0-.15.425c-.045,1.813-.079,3.657-.112,5.441-.042,2.283-.086,4.644-.152,6.966-.01.347.029.455.054.488s.085.086.411.136a122.677,122.677,0,0,0,18.734,1.82h0c.941,0,1.878-.02,2.785-.058,1.111-.047,2.209-.141,3.372-.241.374-.032.757-.065,1.145-.1-.009-.129-.018-.256-.027-.381-.04-.558-.077-1.085-.143-1.592-.736-5.688-3.148-9.613-7.373-12a19.11,19.11,0,0,0-9.648-2.54A27.275,27.275,0,0,0,249.554,145.307Zm-37.21,34.087h0a4.816,4.816,0,0,1-2.948-1.061,13.617,13.617,0,0,1-2.285-2.468c-.151-.193-.308-.393-.462-.585a1.617,1.617,0,0,1-.1-1.541,16.6,16.6,0,0,1,4.3-5.9,12.661,12.661,0,0,1,2.892-1.818,3.2,3.2,0,0,1,1.3-.293,2.583,2.583,0,0,1,2.349,1.565,15.271,15.271,0,0,1,.918,2.685c.1.381.212.775.33,1.153l.035.112-.018.115a11.3,11.3,0,0,1-2.628,6.314A5.1,5.1,0,0,1,212.345,179.394Zm-4.91-4.734c.157.195.313.395.464.588a12.882,12.882,0,0,0,2.109,2.294,3.827,3.827,0,0,0,2.337.852,4.117,4.117,0,0,0,2.956-1.405,10.048,10.048,0,0,0,2.349-5.669c-.109-.358-.208-.721-.3-1.074a14.3,14.3,0,0,0-.852-2.511,1.579,1.579,0,0,0-1.45-1,2.209,2.209,0,0,0-.891.207,11.827,11.827,0,0,0-2.661,1.676,15.663,15.663,0,0,0-4.039,5.559A.8.8,0,0,0,207.435,174.66Zm39.042-15.408-4.078-1.214-8.1-2.41-.693-.206.438-.576a31.071,31.071,0,0,1,13.364-9.891l.791-.332-.1.852c-.471,4-.92,7.82-1.387,11.784Zm-11.19-4.373,7.4,2.2,2.938.875.1-.813c.433-3.679.851-7.237,1.285-10.924A29.9,29.9,0,0,0,235.287,154.879Z" transform="translate(-198.614 -139.891)"/>
    </g>
    <g id="logotest2-2" data-name="logotest2" transform="translate(894.398 17.99)">
      <path id="Tracé_29-2" data-name="Tracé 29" class="cls-4" d="M219.052,223.581c-1.1.785-2.022,1.51-3.006,2.131a7.939,7.939,0,0,1-10.9-1.808c-2.87-3.463-4.214-7.586-5.105-11.859a63.8,63.8,0,0,1,2.146-34.489,14.125,14.125,0,0,0,.585-6.457A16.96,16.96,0,0,1,219.5,152.48a35.107,35.107,0,0,1,10.317,1.414,1.742,1.742,0,0,0,2.173-.8c7.133-8.881,16.432-13.506,27.816-13.189,11.346.317,18.756,7.569,19.822,18.861.67,7.105-1.1,13.772-4.174,20.1a52.588,52.588,0,0,1-18.743,21.388,35.339,35.339,0,0,1-14.82,5.523,1.234,1.234,0,0,0-1.244,1.07,115.166,115.166,0,0,1-5.479,16.593,28.2,28.2,0,0,1-4.62,8.044,15.288,15.288,0,0,1-3.188,2.754,4.213,4.213,0,0,1-6.236-1.541,15.8,15.8,0,0,1-1.894-6.821C219.156,225.163,219.118,224.442,219.052,223.581Zm10.477-66.752a31.709,31.709,0,0,0-10.591-1.352,13.924,13.924,0,0,0-10.775,5.95,14.641,14.641,0,0,0-2.531,8.654c.384-.5.577-.765.777-1.019a17.008,17.008,0,0,1,5.4-4.907c3.652-1.884,7.164-.521,8.454,3.38a11.787,11.787,0,0,1-1.229,10.249c-2.908,4.725-8.111,5.429-12.245,1.733-.55-.491-1.078-1.006-1.641-1.533-.061.146-.135.3-.189.458a62.093,62.093,0,0,0-2.2,32.07c.79,4.111,1.924,8.129,4.679,11.474,1.864,2.262,4.173,2.882,6.694,1.393a34.674,34.674,0,0,0,4.466-3.483,1.82,1.82,0,0,0,.49-1.172,110.978,110.978,0,0,1,4.9-25.249,57.257,57.257,0,0,1,4.905-12.164,10.532,10.532,0,0,1,2.319-2.731,2.267,2.267,0,0,1,3.428.591,5.14,5.14,0,0,1,.731,1.689,20.871,20.871,0,0,1,.027,8.225,43.777,43.777,0,0,1-4.293,12.692c-.183.376-.773.553-1.176.822a3.9,3.9,0,0,1-.406-1.376,15.155,15.155,0,0,1,.569-2.307c1.115-4.2,2.484-8.349,2.686-12.733.069-1.512-.076-3.034-.131-4.786-3.543,3.286-9.82,24.441-10.115,33.519,2.086-2.513,3-5.568,4.47-8.383a4.107,4.107,0,0,1,.624,3.607,15.146,15.146,0,0,1-3.2,6.557,9.838,9.838,0,0,0-2.267,8.606.986.986,0,0,0,.007.1,53.108,53.108,0,0,0,1.285,5.3c.5,1.445,1.5,1.692,2.662.712a16.177,16.177,0,0,0,2.925-3.171,39.5,39.5,0,0,0,4.6-10.041c1.313-3.99,2.531-8.012,3.792-12.028-3.419-.934-3.419-.934-3.554-1.548.921-.079,1.842-.214,2.764-.22.94,0,1.255-.459,1.47-1.323,2.121-8.548,3.871-17.166,5.137-25.882.714-4.916,1.487-9.824,2.234-14.736.083-.545.238-1.019-.589-1.248-3.756-1.041-7.5-2.138-11.226-3.266a1.019,1.019,0,0,0-1.447.577,23.032,23.032,0,0,0-2.66,12.085c.019,1.141-.132,2.294.959,3.094.073.052.043.244.06.363-1.874.57-3.1-.069-3.422-1.887a22.326,22.326,0,0,1,1.762-14.036C229.1,157.756,229.283,157.355,229.528,156.829Zm12.08,46.472c.488-.137.813-.209,1.125-.318a51.152,51.152,0,0,0,16.8-9.577c8.047-6.963,13.7-15.441,15.966-25.963.414-1.925.533-3.915.806-6a80.486,80.486,0,0,1-27.976.6A216.557,216.557,0,0,1,241.608,203.3Zm34.571-42.655c-.077-.935-.111-1.721-.212-2.5-.682-5.268-2.861-9.681-7.623-12.372-6.14-3.472-12.552-3.149-19.005-.926-.224.077-.427.565-.434.868-.1,4.134-.145,8.27-.264,12.4-.021.735.126,1.015.888,1.133,7.165,1.109,14.339,2.078,21.617,1.767C272.789,160.954,274.426,160.781,276.179,160.647Zm-58.018,10.636a26.581,26.581,0,0,0-1.22-3.767,2.129,2.129,0,0,0-2.994-1.034,12.268,12.268,0,0,0-2.776,1.747A16.432,16.432,0,0,0,207,173.955a1.159,1.159,0,0,0,.038,1.01,17.248,17.248,0,0,0,2.663,2.971,4.243,4.243,0,0,0,5.962-.606A10.728,10.728,0,0,0,218.161,171.283ZM246.05,158.6c.526-4.472,1.026-8.723,1.552-13.187a30.734,30.734,0,0,0-13.16,9.733Z" transform="translate(-198.614 -139.891)"/>
      <path id="Tracé_29_-_Contour-2" data-name="Tracé 29 - Contour" class="cls-5" d="M224.838,235.535a4.86,4.86,0,0,1-4.137-2.572,16.443,16.443,0,0,1-1.966-7.031c-.049-.462-.083-.929-.117-1.42l-.3.22c-.683.5-1.328.975-2.006,1.4a9.011,9.011,0,0,1-4.843,1.487,8.729,8.729,0,0,1-6.711-3.4c-3.187-3.845-4.458-8.473-5.21-12.076a66.163,66.163,0,0,1-1.316-17.53,64.619,64.619,0,0,1,3.479-17.225,13.469,13.469,0,0,0,.561-6.24,17.06,17.06,0,0,1,4.171-13.139,17.568,17.568,0,0,1,5.737-4.316,18.026,18.026,0,0,1,7.311-1.717c.236-.006.476-.009.714-.009a35.987,35.987,0,0,1,9.75,1.44,2.181,2.181,0,0,0,.576.094c.376,0,.627-.169,1.073-.724,7.137-8.886,16.258-13.391,27.112-13.391.366,0,.738.005,1.108.016a20.755,20.755,0,0,1,14.1,5.454c3.524,3.38,5.67,8.172,6.207,13.86.62,6.574-.761,13.236-4.222,20.369a53.183,53.183,0,0,1-18.919,21.588,35.813,35.813,0,0,1-15.028,5.6c-.551.073-.7.2-.825.7a114.845,114.845,0,0,1-5.5,16.665,28.583,28.583,0,0,1-4.707,8.183,15.651,15.651,0,0,1-3.295,2.844A5.216,5.216,0,0,1,224.838,235.535Zm-5.356-12.874.068.882c.022.284.041.553.059.812.036.514.07,1,.12,1.473a15.358,15.358,0,0,0,1.823,6.612,3.9,3.9,0,0,0,3.285,2.1,4.236,4.236,0,0,0,2.258-.716,14.655,14.655,0,0,0,3.081-2.663,27.736,27.736,0,0,0,4.532-7.906,113.86,113.86,0,0,0,5.455-16.521,1.724,1.724,0,0,1,1.663-1.443,34.821,34.821,0,0,0,14.612-5.445,52.2,52.2,0,0,0,18.568-21.188c3.379-6.963,4.729-13.452,4.126-19.838-1.058-11.218-8.287-18.1-19.338-18.408-.36-.01-.723-.015-1.08-.015-10.536,0-19.4,4.38-26.332,13.017a2.285,2.285,0,0,1-1.852,1.1,3.147,3.147,0,0,1-.845-.131,35.006,35.006,0,0,0-9.481-1.4c-.229,0-.462,0-.69.008a16.95,16.95,0,0,0-12.32,5.694,16,16,0,0,0-3.928,12.374,14.578,14.578,0,0,1-.61,6.673,63.487,63.487,0,0,0-2.128,34.223c.728,3.49,1.954,7.967,5,11.642a7.749,7.749,0,0,0,5.941,3.036,8.028,8.028,0,0,0,4.31-1.333c.648-.409,1.279-.873,1.948-1.363.331-.243.672-.494,1.035-.752Zm5.329,9.848c-.474,0-1.344-.213-1.838-1.637a30.654,30.654,0,0,1-.952-3.752c-.11-.526-.224-1.07-.347-1.6a.712.712,0,0,1-.019-.167c-.556-3.68.2-6.537,2.391-8.991a14.469,14.469,0,0,0,3.083-6.344,3.782,3.782,0,0,0-.107-2.433c-.3.628-.589,1.268-.868,1.892a24.024,24.024,0,0,1-3.248,5.756l-.932,1.123.047-1.458c.139-4.278,1.618-11.581,3.86-19.059.863-2.88,3.877-12.458,6.414-14.81l.805-.747.034,1.1c.018.561.045,1.1.071,1.623.055,1.108.108,2.154.06,3.2a48.259,48.259,0,0,1-2.092,10.6c-.2.732-.412,1.49-.61,2.235-.06.226-.127.452-.192.67a8.6,8.6,0,0,0-.363,1.559,1.512,1.512,0,0,0,.165.61,1.345,1.345,0,0,0,.47-.326,42.551,42.551,0,0,0,4.248-12.548,20.535,20.535,0,0,0-.018-8.03,4.609,4.609,0,0,0-.655-1.523,1.97,1.97,0,0,0-1.579-.924,1.758,1.758,0,0,0-1.12.432,10.088,10.088,0,0,0-2.207,2.6,56.3,56.3,0,0,0-4.859,12.06,111.14,111.14,0,0,0-4.874,25.136,2.3,2.3,0,0,1-.667,1.519c-.289.242-.581.494-.864.736a26.39,26.39,0,0,1-3.669,2.794,5.778,5.778,0,0,1-2.939.88,5.681,5.681,0,0,1-4.395-2.386c-2.907-3.53-4.017-7.708-4.784-11.7a62.593,62.593,0,0,1,2.218-32.324c.045-.13.1-.25.144-.357.02-.045.039-.09.057-.133l.277-.667.527.493c.177.166.351.331.523.494.379.359.737.7,1.109,1.031a7.987,7.987,0,0,0,5.3,2.23,7.279,7.279,0,0,0,6.189-3.852,11.26,11.26,0,0,0,1.18-9.83c-.814-2.462-2.559-3.875-4.787-3.875a6.469,6.469,0,0,0-2.963.782,16.32,16.32,0,0,0-5.232,4.773c-.125.159-.251.325-.424.554l-.348.458-.908,1.192.01-1.5a15.2,15.2,0,0,1,2.622-8.938,14.412,14.412,0,0,1,11.143-6.161c.549-.045,1.114-.068,1.682-.068a35.809,35.809,0,0,1,9.075,1.434l.582.15-.254.545c-.077.165-.147.317-.213.461-.147.319-.274.594-.41.87a21.667,21.667,0,0,0-1.719,13.729c.2,1.128.76,1.676,1.713,1.676a3,3,0,0,0,.442-.035,3.682,3.682,0,0,1-.742-2.712c0-.133,0-.27,0-.4-.085-4.988.78-8.91,2.725-12.34a1.5,1.5,0,0,1,1.324-.932,2.433,2.433,0,0,1,.7.123c4.1,1.241,7.772,2.309,11.215,3.263a1.264,1.264,0,0,1,.97,1.68c-.007.041-.014.083-.02.125-.234,1.541-.475,3.107-.708,4.622-.509,3.313-1.036,6.739-1.525,10.11-1.223,8.418-2.906,16.9-5.147,25.931a1.853,1.853,0,0,1-1.952,1.7c-.5,0-1,.046-1.514.1.54.171,1.368.4,2.434.688l.5.137-.156.5c-.379,1.206-.76,2.434-1.129,3.62-.858,2.763-1.746,5.62-2.666,8.414a40.253,40.253,0,0,1-4.66,10.166,16.591,16.591,0,0,1-3.015,3.271A2.558,2.558,0,0,1,224.81,232.509Zm-2.156-7.182c.123.529.236,1.067.345,1.588a29.9,29.9,0,0,0,.918,3.629c.152.44.431.964.893.964a1.648,1.648,0,0,0,.973-.471,15.6,15.6,0,0,0,2.835-3.071,39.343,39.343,0,0,0,4.537-9.916c.917-2.787,1.8-5.64,2.66-8.4.319-1.026.647-2.081.975-3.128a23.78,23.78,0,0,1-2.576-.781,1.206,1.206,0,0,1-.835-1l-.123-.558.569-.049c.277-.024.561-.053.835-.082.641-.067,1.3-.136,1.968-.14.607,0,.8-.188.988-.944,2.232-9,3.91-17.449,5.128-25.834.49-3.376,1.017-6.8,1.527-10.118.233-1.514.473-3.08.707-4.62.007-.047.015-.093.022-.138a1.3,1.3,0,0,0,.032-.415c-.007-.019-.07-.08-.283-.139-3.451-.957-7.127-2.026-11.237-3.27a1.53,1.53,0,0,0-.413-.08c-.1,0-.214,0-.454.425-1.852,3.269-2.677,7.028-2.595,11.831,0,.142,0,.284,0,.422,0,1.069.034,1.751.753,2.278a.734.734,0,0,1,.257.632c0,.022,0,.055,0,.067l.059.423-.409.122a4.727,4.727,0,0,1-1.363.224,2.648,2.648,0,0,1-2.7-2.5,25.2,25.2,0,0,1-.265-7.3,21.771,21.771,0,0,1,2.07-7.04c.119-.243.233-.489.362-.767a33.328,33.328,0,0,0-8.244-1.254c-.54,0-1.079.022-1.6.065A13.4,13.4,0,0,0,206.2,168.52a17.131,17.131,0,0,1,5.374-4.81,7.455,7.455,0,0,1,3.421-.894c2.647,0,4.792,1.7,5.736,4.561a12.534,12.534,0,0,1,.589,5.484,12.828,12.828,0,0,1-1.867,5.184,9.538,9.538,0,0,1-3.147,3.224,7.414,7.414,0,0,1-3.893,1.1,8.966,8.966,0,0,1-5.964-2.485c-.376-.336-.733-.674-1.109-1.031a61.827,61.827,0,0,0-2.1,31.559c.742,3.859,1.809,7.893,4.574,11.25a4.738,4.738,0,0,0,3.623,2.021,4.8,4.8,0,0,0,2.431-.741,25.646,25.646,0,0,0,3.526-2.692c.285-.245.58-.5.872-.743a1.378,1.378,0,0,0,.313-.824,105.609,105.609,0,0,1,1.722-12.83,119.941,119.941,0,0,1,3.195-12.533,57.112,57.112,0,0,1,4.951-12.268,10.956,10.956,0,0,1,2.432-2.863,2.745,2.745,0,0,1,1.758-.661,2.952,2.952,0,0,1,2.4,1.351,5.68,5.68,0,0,1,.806,1.855,21.421,21.421,0,0,1,.036,8.419A43.489,43.489,0,0,1,231.543,202a2.016,2.016,0,0,1-.976.81,4.1,4.1,0,0,0-.371.209l-.553.369-.2-.633c-.039-.122-.094-.252-.152-.39a2.464,2.464,0,0,1-.275-1.187,9.475,9.475,0,0,1,.4-1.744c.063-.211.128-.43.184-.642.2-.75.41-1.51.613-2.245a47.507,47.507,0,0,0,2.056-10.383c.046-1-.006-2.023-.06-3.106q-.008-.162-.016-.326c-1.508,2.246-3.476,7.144-5.352,13.4a96.961,96.961,0,0,0-3.707,17.1,31.166,31.166,0,0,0,2.108-4.156c.408-.914.83-1.858,1.306-2.77l.371-.711.475.646a4.576,4.576,0,0,1,.706,4.022,15.433,15.433,0,0,1-3.308,6.77,9.349,9.349,0,0,0-2.146,8.2v.007A.755.755,0,0,1,222.655,225.327ZM240.9,204.018l.22-.843a214.691,214.691,0,0,0,6.7-41.169l.034-.537.533.074a92.653,92.653,0,0,0,12.786.93,72.808,72.808,0,0,0,13.3-1.183c-1.135.1-2.212.187-3.31.234-.921.039-1.872.059-2.827.059h0a123.528,123.528,0,0,1-18.887-1.832c-1.123-.174-1.336-.782-1.311-1.642.067-2.317.11-4.675.152-6.956.033-1.785.067-3.631.112-5.447.009-.373.244-1.146.771-1.328a28.3,28.3,0,0,1,9.275-1.706,20.359,20.359,0,0,1,10.14,2.669,14.634,14.634,0,0,1,5.527,5.4,19.434,19.434,0,0,1,2.345,7.34c.07.536.108,1.077.149,1.65.02.278.04.566.065.869l.02.24.192-.04-.091.7c-.087.665-.159,1.328-.228,1.97a39.432,39.432,0,0,1-.584,4.075,44.922,44.922,0,0,1-5.88,14.477,52.788,52.788,0,0,1-10.248,11.759,51.875,51.875,0,0,1-16.961,9.671c-.222.077-.445.136-.7.205-.135.036-.283.075-.45.122Zm7.887-41.413c-.444,6.735-1.227,13.557-2.328,20.285-1.064,6.5-2.461,13.123-4.154,19.7.092-.026.177-.053.26-.082a50.879,50.879,0,0,0,16.636-9.483c8.5-7.352,13.666-15.755,15.8-25.69a38.7,38.7,0,0,0,.568-3.973c.046-.424.093-.858.145-1.3a73.5,73.5,0,0,1-14.54,1.4A92.955,92.955,0,0,1,248.791,162.605Zm.763-17.3a.952.952,0,0,0-.15.425c-.045,1.813-.079,3.657-.112,5.441-.042,2.283-.086,4.644-.152,6.966-.01.347.029.455.054.488s.085.086.411.136a122.677,122.677,0,0,0,18.734,1.82h0c.941,0,1.878-.02,2.785-.058,1.111-.047,2.209-.141,3.372-.241.374-.032.757-.065,1.145-.1-.009-.129-.018-.256-.027-.381-.04-.558-.077-1.085-.143-1.592-.736-5.688-3.148-9.613-7.373-12a19.11,19.11,0,0,0-9.648-2.54A27.275,27.275,0,0,0,249.554,145.307Zm-37.21,34.087h0a4.816,4.816,0,0,1-2.948-1.061,13.617,13.617,0,0,1-2.285-2.468c-.151-.193-.308-.393-.462-.585a1.617,1.617,0,0,1-.1-1.541,16.6,16.6,0,0,1,4.3-5.9,12.661,12.661,0,0,1,2.892-1.818,3.2,3.2,0,0,1,1.3-.293,2.583,2.583,0,0,1,2.349,1.565,15.271,15.271,0,0,1,.918,2.685c.1.381.212.775.33,1.153l.035.112-.018.115a11.3,11.3,0,0,1-2.628,6.314A5.1,5.1,0,0,1,212.345,179.394Zm-4.91-4.734c.157.195.313.395.464.588a12.882,12.882,0,0,0,2.109,2.294,3.827,3.827,0,0,0,2.337.852,4.117,4.117,0,0,0,2.956-1.405,10.048,10.048,0,0,0,2.349-5.669c-.109-.358-.208-.721-.3-1.074a14.3,14.3,0,0,0-.852-2.511,1.579,1.579,0,0,0-1.45-1,2.209,2.209,0,0,0-.891.207,11.827,11.827,0,0,0-2.661,1.676,15.663,15.663,0,0,0-4.039,5.559A.8.8,0,0,0,207.435,174.66Zm39.042-15.408-4.078-1.214-8.1-2.41-.693-.206.438-.576a31.071,31.071,0,0,1,13.364-9.891l.791-.332-.1.852c-.471,4-.92,7.82-1.387,11.784Zm-11.19-4.373,7.4,2.2,2.938.875.1-.813c.433-3.679.851-7.237,1.285-10.924A29.9,29.9,0,0,0,235.287,154.879Z" transform="translate(-198.614 -139.891)"/>
    </g>
  </g>
</svg>
